<?xml version="1.0" encoding="UTF-8"?>
<!-- Generator: Adobe Illustrator 27.8.1, SVG Export Plug-In . SVG Version: 6.00 Build 0)  -->
<svg version="1.1" id="Layer_1" xmlns="http://www.w3.org/2000/svg" xmlns:xlink="http://www.w3.org/1999/xlink" x="0px" y="0px" viewBox="0 0 606 121" style="enable-background:new 0 0 606 121;" xml:space="preserve">
<style type="text/css">
	.st0{fill-rule:evenodd;clip-rule:evenodd;fill:#005280;}
	.st1{fill-rule:evenodd;clip-rule:evenodd;fill:#034B77;}
	.st2{fill:none;stroke:#12305B;stroke-width:0.1559;stroke-miterlimit:2.6131;}
	.st3{fill-rule:evenodd;clip-rule:evenodd;fill:#0072A9;}
	.st4{fill:none;stroke:#006197;stroke-width:0.1199;stroke-miterlimit:2.6131;}
	.st5{fill-rule:evenodd;clip-rule:evenodd;fill:#159DCD;}
	.st6{fill:none;stroke:#0072A9;stroke-width:0.1199;stroke-miterlimit:2.6131;}
	.st7{fill-rule:evenodd;clip-rule:evenodd;fill:#31C4EC;}
	.st8{fill:none;stroke:#1FA9E1;stroke-width:0.1199;stroke-miterlimit:2.6131;}
</style>
<path class="st0" d="M162.27,70.88h1.52h41.8v0.38v9.61h-43.32l0.01-2.3L162.27,70.88L162.27,70.88z M149.35,48.59h56.24v9.99H150.1  l0.01,35.36l68.4,0.01v-59.2h-69.16V48.59z"/>
<polygon class="st0" points="239.79,48.59 295.27,48.6 295.27,34.75 226.86,34.75 226.87,93.93 295.27,93.94 295.27,80.87   239.78,80.87 239.79,71.65 295.27,71.65 295.27,58.58 239.78,58.58 239.79,56.27 "/>
<path class="st0" d="M317.31,48.59h1.52h41.04v0.38v31.89H317.3v-2.3L317.31,48.59L317.31,48.59z M304.39,93.93l55.47,0.01  l0.01,23.82l12.16,0.01V34.75h-67.64v2.31V93.93z"/>
<path class="st0" d="M472.34,78.56V48.59h43.31v1.92v30.36h-43.32L472.34,78.56L472.34,78.56z M460.94,93.93l67.64,0.01V34.75  h-67.64V93.93z"/>
<polygon class="st0" points="381.91,93.93 451.07,93.94 451.07,34.75 438.14,34.75 438.14,80.87 394.82,80.87 394.83,34.75   381.9,34.75 381.9,37.06 "/>
<polygon class="st0" points="605.35,48.59 605.35,34.75 538.46,34.75 538.46,93.93 550.63,93.94 550.63,48.59 "/>
<path class="st1" d="M69.1,119.83c-0.66-0.21-1.33-0.41-1.98-0.66c-5.26-1.87-10.36-4.54-15.03-7.8c-4.69-3.24-9.06-6.9-13.16-10.7  c-2.07-1.89-4.08-3.81-6.07-5.72c-1.98-1.91-3.94-3.81-5.88-5.66c-1.96-1.85-3.9-3.66-5.84-5.4c-1.95-1.74-3.9-3.4-5.88-4.96  c-3.92-3.15-7.95-5.85-11.96-8.05c-0.54-0.3-1.08-0.59-1.62-0.86c4.42,28.78,29.29,50.81,59.3,50.81c3.12,0,6.17-0.24,9.15-0.69  C69.78,120.05,69.44,119.95,69.1,119.83z"/>
<path class="st2" d="M69.1,119.83c-0.66-0.21-1.33-0.41-1.98-0.66c-5.26-1.87-10.36-4.54-15.03-7.8c-4.69-3.24-9.06-6.9-13.16-10.7  c-2.07-1.89-4.08-3.81-6.07-5.72c-1.98-1.91-3.94-3.81-5.88-5.66c-1.96-1.85-3.9-3.66-5.84-5.4c-1.95-1.74-3.9-3.4-5.88-4.96  c-3.92-3.15-7.95-5.85-11.96-8.05c-0.54-0.3-1.08-0.59-1.62-0.86c4.42,28.78,29.29,50.81,59.3,50.81c3.12,0,6.17-0.24,9.15-0.69  C69.78,120.05,69.44,119.95,69.1,119.83z"/>
<path class="st3" d="M110.47,94.76c-2.92,1.23-6.14,2.21-9.6,2.81c-1.28,0.21-2.59,0.36-3.92,0.46c-0.67,0.05-1.34,0.09-2.01,0.11  c-0.68,0-1.35,0.01-2.04-0.02c-0.67-0.01-1.4-0.06-2.12-0.1c-0.32-0.03-0.63-0.06-0.95-0.09l-0.24-0.02l-0.18-0.02l-0.64-0.07  c-0.68-0.08-1.37-0.15-2.05-0.27c-0.68-0.1-1.37-0.21-2.05-0.35c-5.49-1.04-10.94-2.9-16.06-5.4c-5.14-2.48-10.01-5.43-14.65-8.56  c-2.33-1.56-4.61-3.14-6.87-4.72c-2.25-1.59-4.47-3.16-6.68-4.69s-4.41-3.01-6.59-4.44c-2.19-1.42-4.38-2.76-6.57-4  c-4.36-2.51-8.75-4.57-13.06-6.12c-4.31-1.56-8.54-2.57-12.52-3.13c-0.17-0.02-0.34-0.05-0.51-0.07c-0.12,1.57-0.18,3.16-0.18,4.75  c0,1.4,0.05,2.78,0.14,4.15c1.41,0.5,2.82,1.06,4.24,1.7c4.49,1.96,8.99,4.57,13.36,7.57c4.36,3.03,8.64,6.43,12.79,10.01  c2.08,1.78,4.15,3.59,6.21,5.39c2.06,1.81,4.11,3.61,6.19,5.37c4.14,3.51,8.33,6.84,12.66,9.64c16.74,10.82,35.91,11.39,49.71-4.48  C107.28,99.03,109.17,95.31,110.47,94.76z"/>
<path class="st4" d="M110.47,94.76c-2.92,1.23-6.14,2.21-9.6,2.81c-1.28,0.21-2.59,0.36-3.92,0.46c-0.67,0.05-1.34,0.09-2.01,0.11  c-0.68,0-1.35,0.01-2.04-0.02c-0.67-0.01-1.4-0.06-2.12-0.1c-0.32-0.03-0.63-0.06-0.95-0.09l-0.24-0.02l-0.18-0.02l-0.64-0.07  c-0.68-0.08-1.37-0.15-2.05-0.27c-0.68-0.1-1.37-0.21-2.05-0.35c-5.49-1.04-10.94-2.9-16.06-5.4c-5.14-2.48-10.01-5.43-14.65-8.56  c-2.33-1.56-4.61-3.14-6.87-4.72c-2.25-1.59-4.47-3.16-6.68-4.69s-4.41-3.01-6.59-4.44c-2.19-1.42-4.38-2.76-6.57-4  c-4.36-2.51-8.75-4.57-13.06-6.12c-4.31-1.56-8.54-2.57-12.52-3.13c-0.17-0.02-0.34-0.05-0.51-0.07c-0.12,1.57-0.18,3.16-0.18,4.75  c0,1.4,0.05,2.78,0.14,4.15c1.41,0.5,2.82,1.06,4.24,1.7c4.49,1.96,8.99,4.57,13.36,7.57c4.36,3.03,8.64,6.43,12.79,10.01  c2.08,1.78,4.15,3.59,6.21,5.39c2.06,1.81,4.11,3.61,6.19,5.37c4.14,3.51,8.33,6.84,12.66,9.64c16.74,10.82,35.91,11.39,49.71-4.48  C107.28,99.03,109.17,95.31,110.47,94.76z"/>
<path class="st5" d="M1.98,52.71c4.25,0.19,8.87,0.81,13.6,2.11c4.75,1.25,9.58,3.14,14.37,5.43c4.77,2.32,9.52,5.03,14.17,7.93  c2.33,1.44,4.65,2.91,6.97,4.37c2.31,1.48,4.62,2.94,6.93,4.36c4.63,2.82,9.28,5.47,13.99,7.58c9.12,4.07,19.78,6.67,29.62,3.29  c8.33-2.86,15.07-9.33,17.9-17.72c0.93-2.74,1.41-5.62,1.45-8.51c0-0.08,0-0.16,0-0.24c-0.05,0.04-0.09,0.08-0.14,0.12  c-3.39,2.86-7.59,5.45-12.44,7.33c-1.21,0.46-2.47,0.87-3.76,1.23c-0.64,0.18-1.29,0.35-1.95,0.5c-0.66,0.14-1.32,0.28-2,0.39  c-0.66,0.12-1.38,0.22-2.09,0.32c-0.32,0.03-0.63,0.07-0.95,0.1l-0.24,0.03l-0.18,0.02l-0.13,0.01l-0.52,0.05  c-0.68,0.05-1.37,0.12-2.07,0.14c-0.69,0.03-1.38,0.07-2.08,0.06c-5.58,0.06-11.3-0.69-16.81-2.13c-5.51-1.42-10.88-3.36-16.04-5.5  c-2.59-1.07-5.14-2.17-7.67-3.27c-2.51-1.11-5-2.22-7.47-3.28c-2.47-1.06-4.92-2.09-7.34-3.05c-2.43-0.96-4.84-1.84-7.23-2.63  c-4.77-1.6-9.47-2.75-14-3.43c-4.75-0.71-9.29-0.84-13.47-0.56c-0.36,1.62-0.66,3.27-0.88,4.94C1.68,52.7,1.82,52.71,1.98,52.71z"/>
<path class="st6" d="M1.98,52.71c4.25,0.19,8.87,0.81,13.6,2.11c4.75,1.25,9.58,3.14,14.37,5.43c4.77,2.32,9.52,5.03,14.17,7.93  c2.33,1.44,4.65,2.91,6.97,4.37c2.31,1.48,4.62,2.94,6.93,4.36c4.63,2.82,9.28,5.47,13.99,7.58c9.12,4.07,19.78,6.67,29.62,3.29  c8.33-2.86,15.07-9.33,17.9-17.72c0.93-2.74,1.41-5.62,1.45-8.51c0-0.08,0-0.16,0-0.24c-0.05,0.04-0.09,0.08-0.14,0.12  c-3.39,2.86-7.59,5.45-12.44,7.33c-1.21,0.46-2.47,0.87-3.76,1.23c-0.64,0.18-1.29,0.35-1.95,0.5c-0.66,0.14-1.32,0.28-2,0.39  c-0.66,0.12-1.38,0.22-2.09,0.32c-0.32,0.03-0.63,0.07-0.95,0.1l-0.24,0.03l-0.18,0.02l-0.13,0.01l-0.52,0.05  c-0.68,0.05-1.37,0.12-2.07,0.14c-0.69,0.03-1.38,0.07-2.08,0.06c-5.58,0.06-11.3-0.69-16.81-2.13c-5.51-1.42-10.88-3.36-16.04-5.5  c-2.59-1.07-5.14-2.17-7.67-3.27c-2.51-1.11-5-2.22-7.47-3.28c-2.47-1.06-4.92-2.09-7.34-3.05c-2.43-0.96-4.84-1.84-7.23-2.63  c-4.77-1.6-9.47-2.75-14-3.43c-4.75-0.71-9.29-0.84-13.47-0.56c-0.36,1.62-0.66,3.27-0.88,4.94C1.68,52.7,1.82,52.71,1.98,52.71z"/>
<path class="st7" d="M16.36,43.67c4.89,0.29,10.01,1.18,15.15,2.49c5.14,1.34,10.32,3.06,15.45,4.98c2.57,0.96,5.13,1.95,7.69,2.92  c2.56,0.99,5.11,1.97,7.65,2.9c5.1,1.86,10.17,3.55,15.21,4.68c5.03,1.14,10,1.74,14.75,1.59c0.6-0.01,1.19-0.05,1.77-0.09  c0.59-0.02,1.17-0.09,1.75-0.14l0.44-0.04l0.1-0.01h0.01l0.06-0.01l0.24-0.03c0.31-0.04,0.63-0.08,0.94-0.12  c0.53-0.09,1.04-0.16,1.6-0.28c2.2-0.44,4.33-0.97,6.34-1.69c4.06-1.37,7.7-3.29,10.96-5.33c1.41-0.89,2.73-1.81,3.97-2.74  c-3.95-29.3-29.06-51.91-59.46-51.91c-27.36,0-50.44,18.31-57.66,43.35C7.33,43.62,11.73,43.36,16.36,43.67z"/>
<path class="st8" d="M16.36,43.67c4.89,0.29,10.01,1.18,15.15,2.49c5.14,1.34,10.32,3.06,15.45,4.98c2.57,0.96,5.13,1.95,7.69,2.92  c2.56,0.99,5.11,1.97,7.65,2.9c5.1,1.86,10.17,3.55,15.21,4.68c5.03,1.14,10,1.74,14.75,1.59c0.6-0.01,1.19-0.05,1.77-0.09  c0.59-0.02,1.17-0.09,1.75-0.14l0.44-0.04l0.1-0.01h0.01l0.06-0.01l0.24-0.03c0.31-0.04,0.63-0.08,0.94-0.12  c0.53-0.09,1.04-0.16,1.6-0.28c2.2-0.44,4.33-0.97,6.34-1.69c4.06-1.37,7.7-3.29,10.96-5.33c1.41-0.89,2.73-1.81,3.97-2.74  c-3.95-29.3-29.06-51.91-59.46-51.91c-27.36,0-50.44,18.31-57.66,43.35C7.33,43.62,11.73,43.36,16.36,43.67z"/>
</svg>